<?xml version="1.0" encoding="UTF-8"?>
<svg xmlns="http://www.w3.org/2000/svg" xmlns:xlink="http://www.w3.org/1999/xlink" width="128pt" height="128pt" viewBox="0 0 128 128" version="1.1">
<g id="surface1">
<path style=" stroke:none;fill-rule:nonzero;fill:#00153D;fill-opacity:1;" d="M 49.277344 15.238281 C 43.222656 15.238281 38.015625 19.503906 36.824219 25.425781 L 35.804688 30.476563 L 22.855469 30.476563 C 15.84375 30.476563 10.160156 36.160156 10.160156 43.175781 L 10.160156 96.507813 C 10.160156 103.523438 15.84375 109.207031 22.855469 109.207031 L 104.128906 109.207031 C 111.140625 109.207031 116.824219 103.523438 116.824219 96.507813 L 116.824219 43.175781 C 116.824219 36.160156 111.140625 30.476563 104.128906 30.476563 L 91.179688 30.476563 L 90.160156 25.425781 C 88.96875 19.503906 83.761719 15.238281 77.707031 15.238281 Z M 63.492188 43.175781 C 77.511719 43.175781 88.890625 54.554688 88.890625 68.570313 C 88.890625 82.589844 77.511719 93.96875 63.492188 93.96875 C 49.472656 93.96875 38.09375 82.589844 38.09375 68.570313 C 38.09375 54.554688 49.472656 43.175781 63.492188 43.175781 Z M 63.492188 48.253906 C 52.292969 48.253906 43.175781 57.371094 43.175781 68.570313 C 43.175781 79.773438 52.292969 88.890625 63.492188 88.890625 C 74.691406 88.890625 83.808594 79.773438 83.808594 68.570313 C 83.808594 57.371094 74.691406 48.253906 63.492188 48.253906 Z "/>
</g>
</svg>
